<?xml version="1.0" standalone="yes"?>

<svg version="1.1" viewBox="0.0 0.0 817.498687664042 194.06561679790028" fill="none" stroke="none" stroke-linecap="square" stroke-miterlimit="10" xmlns="http://www.w3.org/2000/svg" xmlns:xlink="http://www.w3.org/1999/xlink"><clipPath id="p.0"><path d="m0 0l817.49866 0l0 194.06561l-817.49866 0l0 -194.06561z" clip-rule="nonzero"></path></clipPath><g clip-path="url(#p.0)"><path fill="#000000" fill-opacity="0.0" d="m0 0l817.49866 0l0 194.06561l-817.49866 0z" fill-rule="evenodd"></path><path fill="#cfe2f3" d="m1.3727034 13.047244l0 0c0 -4.137062 3.3537512 -7.4908137 7.4908133 -7.4908137l55.254593 0c1.9866867 0 3.892006 0.7892084 5.2968063 2.1940088c1.4048004 1.4047999 2.1940079 3.3101172 2.1940079 5.296805l0 29.963253c0 4.137062 -3.3537521 7.490814 -7.490814 7.490814l-55.254593 0c-4.137062 0 -7.4908133 -3.3537521 -7.4908133 -7.490814z" fill-rule="evenodd"></path><path stroke="#000000" stroke-width="1.0" stroke-linejoin="round" stroke-linecap="butt" d="m1.3727034 13.047244l0 0c0 -4.137062 3.3537512 -7.4908137 7.4908133 -7.4908137l55.254593 0c1.9866867 0 3.892006 0.7892084 5.2968063 2.1940088c1.4048004 1.4047999 2.1940079 3.3101172 2.1940079 5.296805l0 29.963253c0 4.137062 -3.3537521 7.490814 -7.490814 7.490814l-55.254593 0c-4.137062 0 -7.4908133 -3.3537521 -7.4908133 -7.490814z" fill-rule="evenodd"></path><path fill="#000000" d="m18.896126 31.089497l1.625 -0.21875q0.0625 1.546875 0.578125 2.125q0.53125 0.578125 1.4375 0.578125q0.6875 0 1.171875 -0.3125q0.5 -0.3125 0.671875 -0.84375q0.1875 -0.53125 0.1875 -1.703125l0 -9.359375l1.8125 0l0 9.265625q0 1.703125 -0.421875 2.640625q-0.40625 0.9375 -1.3125 1.4375q-0.890625 0.484375 -2.09375 0.484375q-1.796875 0 -2.75 -1.03125q-0.9375 -1.03125 -0.90625 -3.0625zm9.703125 -2.765625q0 -3.390625 1.8125 -5.296875q1.828125 -1.921875 4.703125 -1.921875q1.875 0 3.390625 0.90625q1.515625 0.890625 2.296875 2.5q0.796875 1.609375 0.796875 3.65625q0 2.0625 -0.84375 3.703125q-0.828125 1.625 -2.359375 2.46875q-1.53125 0.84375 -3.296875 0.84375q-1.921875 0 -3.4375 -0.921875q-1.5 -0.9375 -2.28125 -2.53125q-0.78125 -1.609375 -0.78125 -3.40625zm1.859375 0.03125q0 2.453125 1.3125 3.875q1.328125 1.40625 3.3125 1.40625q2.03125 0 3.34375 -1.421875q1.3125 -1.4375 1.3125 -4.0625q0 -1.65625 -0.5625 -2.890625q-0.546875 -1.234375 -1.640625 -1.921875q-1.078125 -0.6875 -2.421875 -0.6875q-1.90625 0 -3.28125 1.3125q-1.375 1.3125 -1.375 4.390625zm13.120804 6.59375l0 -13.59375l5.109375 0q1.546875 0 2.484375 0.40625q0.953125 0.40625 1.484375 1.265625q0.53125 0.859375 0.53125 1.796875q0 0.875 -0.46875 1.65625q-0.46875 0.765625 -1.4375 1.234375q1.234375 0.359375 1.890625 1.234375q0.671875 0.875 0.671875 2.0625q0 0.953125 -0.40625 1.78125q-0.390625 0.8125 -0.984375 1.265625q-0.59375 0.4375 -1.5 0.671875q-0.890625 0.21875 -2.1875 0.21875l-5.1875 0zm1.796875 -7.890625l2.9375 0q1.203125 0 1.71875 -0.15625q0.6875 -0.203125 1.03125 -0.671875q0.359375 -0.46875 0.359375 -1.1875q0 -0.671875 -0.328125 -1.1875q-0.328125 -0.515625 -0.9375 -0.703125q-0.59375 -0.203125 -2.0625 -0.203125l-2.71875 0l0 4.109375zm0 6.28125l3.390625 0q0.875 0 1.21875 -0.0625q0.625 -0.109375 1.046875 -0.359375q0.421875 -0.265625 0.6875 -0.765625q0.265625 -0.5 0.265625 -1.140625q0 -0.765625 -0.390625 -1.328125q-0.390625 -0.5625 -1.078125 -0.78125q-0.6875 -0.234375 -1.984375 -0.234375l-3.15625 0l0 4.671875z" fill-rule="nonzero"></path><path fill="#cfe2f3" d="m1.3727034 82.41732l0 0c0 -4.137062 3.3537512 -7.490814 7.4908133 -7.490814l55.254593 0c1.9866867 0 3.892006 0.7892151 5.2968063 2.1940079c1.4048004 1.4048004 2.1940079 3.3101196 2.1940079 5.2968063l0 29.963257c0 4.137062 -3.3537521 7.490814 -7.490814 7.490814l-55.254593 0c-4.137062 0 -7.4908133 -3.3537521 -7.4908133 -7.490814z" fill-rule="evenodd"></path><path stroke="#000000" stroke-width="1.0" stroke-linejoin="round" stroke-linecap="butt" d="m1.3727034 82.41732l0 0c0 -4.137062 3.3537512 -7.490814 7.4908133 -7.490814l55.254593 0c1.9866867 0 3.892006 0.7892151 5.2968063 2.1940079c1.4048004 1.4048004 2.1940079 3.3101196 2.1940079 5.2968063l0 29.963257c0 4.137062 -3.3537521 7.490814 -7.490814 7.490814l-55.254593 0c-4.137062 0 -7.4908133 -3.3537521 -7.4908133 -7.490814z" fill-rule="evenodd"></path><path fill="#000000" d="m18.896126 100.45957l1.625 -0.21875q0.0625 1.546875 0.578125 2.125q0.53125 0.578125 1.4375 0.578125q0.6875 0 1.171875 -0.3125q0.5 -0.3125 0.671875 -0.84375q0.1875 -0.53125 0.1875 -1.703125l0 -9.359375l1.8125 0l0 9.265625q0 1.703125 -0.421875 2.640625q-0.40625 0.9375 -1.3125 1.4375q-0.890625 0.484375 -2.09375 0.484375q-1.796875 0 -2.75 -1.03125q-0.9375 -1.03125 -0.90625 -3.0625zm9.703125 -2.765625q0 -3.390625 1.8125 -5.296875q1.828125 -1.921875 4.703125 -1.921875q1.875 0 3.390625 0.90625q1.515625 0.890625 2.296875 2.5q0.796875 1.609375 0.796875 3.65625q0 2.0625 -0.84375 3.703125q-0.828125 1.625 -2.359375 2.46875q-1.53125 0.84375 -3.296875 0.84375q-1.921875 0 -3.4375 -0.921875q-1.5 -0.9375 -2.28125 -2.53125q-0.78125 -1.609375 -0.78125 -3.40625zm1.859375 0.03125q0 2.453125 1.3125 3.875q1.328125 1.40625 3.3125 1.40625q2.03125 0 3.34375 -1.421875q1.3125 -1.4375 1.3125 -4.0625q0 -1.65625 -0.5625 -2.890625q-0.546875 -1.234375 -1.640625 -1.921875q-1.078125 -0.6875 -2.421875 -0.6875q-1.90625 0 -3.28125 1.3125q-1.375 1.3125 -1.375 4.390625zm13.120804 6.59375l0 -13.59375l5.109375 0q1.546875 0 2.484375 0.40625q0.953125 0.40625 1.484375 1.265625q0.53125 0.859375 0.53125 1.796875q0 0.875 -0.46875 1.65625q-0.46875 0.765625 -1.4375 1.234375q1.234375 0.359375 1.890625 1.234375q0.671875 0.875 0.671875 2.0625q0 0.953125 -0.40625 1.78125q-0.390625 0.8125 -0.984375 1.265625q-0.59375 0.4375 -1.5 0.671875q-0.890625 0.21875 -2.1875 0.21875l-5.1875 0zm1.796875 -7.890625l2.9375 0q1.203125 0 1.71875 -0.15625q0.6875 -0.203125 1.03125 -0.671875q0.359375 -0.46875 0.359375 -1.1875q0 -0.671875 -0.328125 -1.1875q-0.328125 -0.515625 -0.9375 -0.703125q-0.59375 -0.203125 -2.0625 -0.203125l-2.71875 0l0 4.109375zm0 6.28125l3.390625 0q0.875 0 1.21875 -0.0625q0.625 -0.109375 1.046875 -0.359375q0.421875 -0.265625 0.6875 -0.765625q0.265625 -0.5 0.265625 -1.140625q0 -0.765625 -0.390625 -1.328125q-0.390625 -0.5625 -1.078125 -0.78125q-0.6875 -0.234375 -1.984375 -0.234375l-3.15625 0l0 4.671875z" fill-rule="nonzero"></path><path fill="#cfe2f3" d="m1.3727034 151.7874l0 0c0 -4.1370544 3.3537512 -7.490814 7.4908133 -7.490814l55.254593 0c1.9866867 0 3.892006 0.7892151 5.2968063 2.1940155c1.4048004 1.4048004 2.1940079 3.3101196 2.1940079 5.2967987l0 29.963257c0 4.1370697 -3.3537521 7.490814 -7.490814 7.490814l-55.254593 0c-4.137062 0 -7.4908133 -3.3537445 -7.4908133 -7.490814z" fill-rule="evenodd"></path><path stroke="#000000" stroke-width="1.0" stroke-linejoin="round" stroke-linecap="butt" d="m1.3727034 151.7874l0 0c0 -4.1370544 3.3537512 -7.490814 7.4908133 -7.490814l55.254593 0c1.9866867 0 3.892006 0.7892151 5.2968063 2.1940155c1.4048004 1.4048004 2.1940079 3.3101196 2.1940079 5.2967987l0 29.963257c0 4.1370697 -3.3537521 7.490814 -7.490814 7.490814l-55.254593 0c-4.137062 0 -7.4908133 -3.3537445 -7.4908133 -7.490814z" fill-rule="evenodd"></path><path fill="#000000" d="m30.434608 173.68903l0 -1.90625l1.90625 0l0 1.90625l-1.90625 0zm5.183304 0l0 -1.90625l1.90625 0l0 1.90625l-1.90625 0zm5.183304 0l0 -1.90625l1.90625 0l0 1.90625l-1.90625 0z" fill-rule="nonzero"></path><path fill="#cfe2f3" d="m90.92519 91.75328l35.984253 0l0 -8.181099l16.362206 16.362198l-16.362206 16.362206l0 -8.181099l-35.984253 0z" fill-rule="evenodd"></path><path stroke="#000000" stroke-width="1.0" stroke-linejoin="round" stroke-linecap="butt" d="m90.92519 91.75328l35.984253 0l0 -8.181099l16.362206 16.362198l-16.362206 16.362206l0 -8.181099l-35.984253 0z" fill-rule="evenodd"></path><path fill="#cfe2f3" d="m161.95538 119.87139l0 0c2.752716 0 4.984253 -8.926102 4.984253 -19.937012c0 -11.010902 -2.2315369 -19.937004 -4.984253 -19.937004l105.18109 0c2.7527466 0 4.984253 8.926102 4.984253 19.937004c0 11.01091 -2.2315063 19.937012 -4.984253 19.937012z" fill-rule="evenodd"></path><path fill="#e2edf7" d="m161.95538 119.87139l0 0c-2.7527313 0 -4.984253 -8.926102 -4.984253 -19.937012c0 -11.010902 2.2315216 -19.937004 4.984253 -19.937004l0 0c2.752716 0 4.984253 8.926102 4.984253 19.937004c0 11.01091 -2.2315369 19.937012 -4.984253 19.937012z" fill-rule="evenodd"></path><path fill="#000000" fill-opacity="0.0" d="m161.95538 79.997375l0 0c2.752716 0 4.984253 8.926102 4.984253 19.937004c0 11.01091 -2.2315369 19.937012 -4.984253 19.937012l0 0c-2.7527313 0 -4.984253 -8.926102 -4.984253 -19.937012c0 -11.010902 2.2315216 -19.937004 4.984253 -19.937004l105.18109 0c2.7527466 0 4.984253 8.926102 4.984253 19.937004c0 11.01091 -2.2315063 19.937012 -4.984253 19.937012l-105.18109 0" fill-rule="evenodd"></path><path stroke="#000000" stroke-width="1.0" stroke-linejoin="round" stroke-linecap="butt" d="m161.95538 79.997375l0 0c2.752716 0 4.984253 8.926102 4.984253 19.937004c0 11.01091 -2.2315369 19.937012 -4.984253 19.937012l0 0c-2.7527313 0 -4.984253 -8.926102 -4.984253 -19.937012c0 -11.010902 2.2315216 -19.937004 4.984253 -19.937004l105.18109 0c2.7527466 0 4.984253 8.926102 4.984253 19.937004c0 11.01091 -2.2315063 19.937012 -4.984253 19.937012l-105.18109 0" fill-rule="evenodd"></path><path fill="#cfe2f3" d="m285.8176 91.75328l35.984253 0l0 -8.181099l16.362183 16.362198l-16.362183 16.362206l0 -8.181099l-35.984253 0z" fill-rule="evenodd"></path><path stroke="#000000" stroke-width="1.0" stroke-linejoin="round" stroke-linecap="butt" d="m285.8176 91.75328l35.984253 0l0 -8.181099l16.362183 16.362198l-16.362183 16.362206l0 -8.181099l-35.984253 0z" fill-rule="evenodd"></path><path fill="#cfe2f3" d="m345.07086 13.047244l0 0c0 -4.137062 3.3537598 -7.4908137 7.490814 -7.4908137l55.25461 0c1.9866638 0 3.8919983 0.7892084 5.2967834 2.1940088c1.4048157 1.4047999 2.1940308 3.3101172 2.1940308 5.296805l0 29.963253c0 4.137062 -3.3537598 7.490814 -7.490814 7.490814l-55.25461 0c-4.1370544 0 -7.490814 -3.3537521 -7.490814 -7.490814z" fill-rule="evenodd"></path><path stroke="#000000" stroke-width="1.0" stroke-linejoin="round" stroke-linecap="butt" d="m345.07086 13.047244l0 0c0 -4.137062 3.3537598 -7.4908137 7.490814 -7.4908137l55.25461 0c1.9866638 0 3.8919983 0.7892084 5.2967834 2.1940088c1.4048157 1.4047999 2.1940308 3.3101172 2.1940308 5.296805l0 29.963253c0 4.137062 -3.3537598 7.490814 -7.490814 7.490814l-55.25461 0c-4.1370544 0 -7.490814 -3.3537521 -7.490814 -7.490814z" fill-rule="evenodd"></path><path fill="#000000" d="m362.27014 34.94887l-3.609375 -13.59375l1.84375 0l2.0625 8.90625q0.34375 1.40625 0.578125 2.78125q0.515625 -2.171875 0.609375 -2.515625l2.59375 -9.171875l2.171875 0l1.953125 6.875q0.734375 2.5625 1.046875 4.8125q0.265625 -1.28125 0.6875 -2.953125l2.125 -8.734375l1.8125 0l-3.734375 13.59375l-1.734375 0l-2.859375 -10.359375q-0.359375 -1.296875 -0.421875 -1.59375q-0.21875 0.9375 -0.40625 1.59375l-2.890625 10.359375l-1.828125 0zm15.264893 0l0 -13.59375l6.03125 0q1.8125 0 2.75 0.359375q0.953125 0.359375 1.515625 1.296875q0.5625 0.921875 0.5625 2.046875q0 1.453125 -0.9375 2.453125q-0.921875 0.984375 -2.890625 1.25q0.71875 0.34375 1.09375 0.671875q0.78125 0.734375 1.484375 1.8125l2.375 3.703125l-2.265625 0l-1.796875 -2.828125q-0.796875 -1.21875 -1.3125 -1.875q-0.5 -0.65625 -0.90625 -0.90625q-0.40625 -0.265625 -0.8125 -0.359375q-0.3125 -0.078125 -1.015625 -0.078125l-2.078125 0l0 6.046875l-1.796875 0zm1.796875 -7.59375l3.859375 0q1.234375 0 1.921875 -0.25q0.703125 -0.265625 1.0625 -0.828125q0.375 -0.5625 0.375 -1.21875q0 -0.96875 -0.703125 -1.578125q-0.703125 -0.625 -2.21875 -0.625l-4.296875 0l0 4.5zm11.566711 7.59375l0 -13.59375l1.796875 0l0 6.734375l6.765625 -6.734375l2.4375 0l-5.703125 5.5l5.953125 8.09375l-2.375 0l-4.84375 -6.890625l-2.234375 2.171875l0 4.71875l-1.796875 0z" fill-rule="nonzero"></path><path fill="#cfe2f3" d="m345.07086 82.41732l0 0c0 -4.137062 3.3537598 -7.490814 7.490814 -7.490814l55.25461 0c1.9866638 0 3.8919983 0.7892151 5.2967834 2.1940079c1.4048157 1.4048004 2.1940308 3.3101196 2.1940308 5.2968063l0 29.963257c0 4.137062 -3.3537598 7.490814 -7.490814 7.490814l-55.25461 0c-4.1370544 0 -7.490814 -3.3537521 -7.490814 -7.490814z" fill-rule="evenodd"></path><path stroke="#000000" stroke-width="1.0" stroke-linejoin="round" stroke-linecap="butt" d="m345.07086 82.41732l0 0c0 -4.137062 3.3537598 -7.490814 7.490814 -7.490814l55.25461 0c1.9866638 0 3.8919983 0.7892151 5.2967834 2.1940079c1.4048157 1.4048004 2.1940308 3.3101196 2.1940308 5.2968063l0 29.963257c0 4.137062 -3.3537598 7.490814 -7.490814 7.490814l-55.25461 0c-4.1370544 0 -7.490814 -3.3537521 -7.490814 -7.490814z" fill-rule="evenodd"></path><path fill="#000000" d="m362.27014 104.31895l-3.609375 -13.59375l1.84375 0l2.0625 8.90625q0.34375 1.40625 0.578125 2.78125q0.515625 -2.171875 0.609375 -2.515625l2.59375 -9.171875l2.171875 0l1.953125 6.875q0.734375 2.5625 1.046875 4.8125q0.265625 -1.28125 0.6875 -2.953125l2.125 -8.734375l1.8125 0l-3.734375 13.59375l-1.734375 0l-2.859375 -10.359375q-0.359375 -1.296875 -0.421875 -1.59375q-0.21875 0.9375 -0.40625 1.59375l-2.890625 10.359375l-1.828125 0zm15.264893 0l0 -13.59375l6.03125 0q1.8125 0 2.75 0.359375q0.953125 0.359375 1.515625 1.296875q0.5625 0.921875 0.5625 2.046875q0 1.453125 -0.9375 2.453125q-0.921875 0.984375 -2.890625 1.25q0.71875 0.34375 1.09375 0.671875q0.78125 0.734375 1.484375 1.8125l2.375 3.703125l-2.265625 0l-1.796875 -2.828125q-0.796875 -1.21875 -1.3125 -1.875q-0.5 -0.65625 -0.90625 -0.90625q-0.40625 -0.265625 -0.8125 -0.359375q-0.3125 -0.078125 -1.015625 -0.078125l-2.078125 0l0 6.046875l-1.796875 0zm1.796875 -7.59375l3.859375 0q1.234375 0 1.921875 -0.25q0.703125 -0.265625 1.0625 -0.828125q0.375 -0.5625 0.375 -1.21875q0 -0.96875 -0.703125 -1.578125q-0.703125 -0.625 -2.21875 -0.625l-4.296875 0l0 4.5zm11.566711 7.59375l0 -13.59375l1.796875 0l0 6.734375l6.765625 -6.734375l2.4375 0l-5.703125 5.5l5.953125 8.09375l-2.375 0l-4.84375 -6.890625l-2.234375 2.171875l0 4.71875l-1.796875 0z" fill-rule="nonzero"></path><path fill="#cfe2f3" d="m345.07086 151.7874l0 0c0 -4.1370544 3.3537598 -7.490814 7.490814 -7.490814l55.25461 0c1.9866638 0 3.8919983 0.7892151 5.2967834 2.1940155c1.4048157 1.4048004 2.1940308 3.3101196 2.1940308 5.2967987l0 29.963257c0 4.1370697 -3.3537598 7.490814 -7.490814 7.490814l-55.25461 0c-4.1370544 0 -7.490814 -3.3537445 -7.490814 -7.490814z" fill-rule="evenodd"></path><path stroke="#000000" stroke-width="1.0" stroke-linejoin="round" stroke-linecap="butt" d="m345.07086 151.7874l0 0c0 -4.1370544 3.3537598 -7.490814 7.490814 -7.490814l55.25461 0c1.9866638 0 3.8919983 0.7892151 5.2967834 2.1940155c1.4048157 1.4048004 2.1940308 3.3101196 2.1940308 5.2967987l0 29.963257c0 4.1370697 -3.3537598 7.490814 -7.490814 7.490814l-55.25461 0c-4.1370544 0 -7.490814 -3.3537445 -7.490814 -7.490814z" fill-rule="evenodd"></path><path fill="#000000" d="m374.13278 173.68903l0 -1.90625l1.90625 0l0 1.90625l-1.90625 0zm5.1832886 0l0 -1.90625l1.90625 0l0 1.90625l-1.90625 0zm5.183319 0l0 -1.90625l1.90625 0l0 1.90625l-1.90625 0z" fill-rule="nonzero"></path><path fill="#cfe2f3" d="m433.68896 91.75328l35.984253 0l0 -8.181099l16.362213 16.362198l-16.362213 16.362206l0 -8.181099l-35.984253 0z" fill-rule="evenodd"></path><path stroke="#000000" stroke-width="1.0" stroke-linejoin="round" stroke-linecap="butt" d="m433.68896 91.75328l35.984253 0l0 -8.181099l16.362213 16.362198l-16.362213 16.362206l0 -8.181099l-35.984253 0z" fill-rule="evenodd"></path><path fill="#cfe2f3" d="m504.71915 119.87139l0 0c2.7527466 0 4.984253 -8.926102 4.984253 -19.937012c0 -11.010902 -2.2315063 -19.937004 -4.984253 -19.937004l105.18112 0c2.7527466 0 4.984253 8.926102 4.984253 19.937004c0 11.01091 -2.2315063 19.937012 -4.984253 19.937012z" fill-rule="evenodd"></path><path fill="#e2edf7" d="m504.71915 119.87139l0 0c-2.752716 0 -4.984253 -8.926102 -4.984253 -19.937012c0 -11.010902 2.2315369 -19.937004 4.984253 -19.937004l0 0c2.7527466 0 4.984253 8.926102 4.984253 19.937004c0 11.01091 -2.2315063 19.937012 -4.984253 19.937012z" fill-rule="evenodd"></path><path fill="#000000" fill-opacity="0.0" d="m504.71915 79.997375l0 0c2.7527466 0 4.984253 8.926102 4.984253 19.937004c0 11.01091 -2.2315063 19.937012 -4.984253 19.937012l0 0c-2.752716 0 -4.984253 -8.926102 -4.984253 -19.937012c0 -11.010902 2.2315369 -19.937004 4.984253 -19.937004l105.18112 0c2.7527466 0 4.984253 8.926102 4.984253 19.937004c0 11.01091 -2.2315063 19.937012 -4.984253 19.937012l-105.18112 0" fill-rule="evenodd"></path><path stroke="#000000" stroke-width="1.0" stroke-linejoin="round" stroke-linecap="butt" d="m504.71915 79.997375l0 0c2.7527466 0 4.984253 8.926102 4.984253 19.937004c0 11.01091 -2.2315063 19.937012 -4.984253 19.937012l0 0c-2.752716 0 -4.984253 -8.926102 -4.984253 -19.937012c0 -11.010902 2.2315369 -19.937004 4.984253 -19.937004l105.18112 0c2.7527466 0 4.984253 8.926102 4.984253 19.937004c0 11.01091 -2.2315063 19.937012 -4.984253 19.937012l-105.18112 0" fill-rule="evenodd"></path><path fill="#cfe2f3" d="m628.58136 91.75328l35.984253 0l0 -8.181099l16.362183 16.362198l-16.362183 16.362206l0 -8.181099l-35.984253 0z" fill-rule="evenodd"></path><path stroke="#000000" stroke-width="1.0" stroke-linejoin="round" stroke-linecap="butt" d="m628.58136 91.75328l35.984253 0l0 -8.181099l16.362183 16.362198l-16.362183 16.362206l0 -8.181099l-35.984253 0z" fill-rule="evenodd"></path><path fill="#cfe2f3" d="m699.3123 75.15223l0 0c0 -6.8941345 5.588806 -12.482937 12.482971 -12.482937l90.183716 0c3.310669 0 6.485779 1.3151627 8.826782 3.65617c2.3410034 2.3410034 3.656128 5.5160904 3.656128 8.826767l0 49.931763c0 6.894142 -5.588745 12.482933 -12.48291 12.482933l-90.183716 0c-6.894165 0 -12.482971 -5.588791 -12.482971 -12.482933z" fill-rule="evenodd"></path><path stroke="#000000" stroke-width="1.0" stroke-linejoin="round" stroke-linecap="butt" d="m699.3123 75.15223l0 0c0 -6.8941345 5.588806 -12.482937 12.482971 -12.482937l90.183716 0c3.310669 0 6.485779 1.3151627 8.826782 3.65617c2.3410034 2.3410034 3.656128 5.5160904 3.656128 8.826767l0 49.931763c0 6.894142 -5.588745 12.482933 -12.48291 12.482933l-90.183716 0c-6.894165 0 -12.482971 -5.588791 -12.482971 -12.482933z" fill-rule="evenodd"></path><path fill="#000000" d="m730.3715 96.03811l0 -13.59375l5.125 0q1.359375 0 2.078125 0.125q1.0 0.171875 1.671875 0.640625q0.671875 0.46875 1.078125 1.3125q0.421875 0.84375 0.421875 1.84375q0 1.734375 -1.109375 2.9375q-1.09375 1.203125 -3.984375 1.203125l-3.484375 0l0 5.53125l-1.796875 0zm1.796875 -7.140625l3.515625 0q1.75 0 2.46875 -0.640625q0.734375 -0.65625 0.734375 -1.828125q0 -0.859375 -0.4375 -1.46875q-0.421875 -0.609375 -1.125 -0.796875q-0.453125 -0.125 -1.671875 -0.125l-3.484375 0l0 4.859375zm10.6779175 7.140625l0 -13.59375l6.03125 0q1.8125 0 2.75 0.359375q0.953125 0.359375 1.515625 1.296875q0.5625 0.921875 0.5625 2.046875q0 1.453125 -0.9375 2.453125q-0.921875 0.984375 -2.890625 1.25q0.71875 0.34375 1.09375 0.671875q0.78125 0.734375 1.484375 1.8125l2.375 3.703125l-2.265625 0l-1.796875 -2.828125q-0.796875 -1.21875 -1.3125 -1.875q-0.5 -0.65625 -0.90625 -0.90625q-0.40625 -0.265625 -0.8125 -0.359375q-0.3125 -0.078125 -1.015625 -0.078125l-2.078125 0l0 6.046875l-1.796875 0zm1.796875 -7.59375l3.859375 0q1.234375 0 1.921875 -0.25q0.703125 -0.265625 1.0625 -0.828125q0.375 -0.5625 0.375 -1.21875q0 -0.96875 -0.703125 -1.578125q-0.703125 -0.625 -2.21875 -0.625l-4.296875 0l0 4.5zm11.941711 7.59375l0 -13.59375l1.8125 0l0 13.59375l-1.8125 0zm4.8707886 0l0 -13.59375l1.84375 0l7.140625 10.671875l0 -10.671875l1.71875 0l0 13.59375l-1.84375 0l-7.140625 -10.6875l0 10.6875l-1.71875 0zm16.941711 0l0 -12.0l-4.46875 0l0 -1.59375l10.765625 0l0 1.59375l-4.5 0l0 12.0l-1.796875 0z" fill-rule="nonzero"></path><path fill="#000000" d="m715.363 118.03811l0 -13.59375l6.03125 0q1.8125 0 2.75 0.359375q0.953125 0.359375 1.515625 1.296875q0.5625 0.921875 0.5625 2.046875q0 1.453125 -0.9375 2.453125q-0.921875 0.984375 -2.890625 1.25q0.71875 0.34375 1.09375 0.671875q0.78125 0.734375 1.484375 1.8125l2.375 3.703125l-2.265625 0l-1.796875 -2.828125q-0.796875 -1.21875 -1.3125 -1.875q-0.5 -0.65625 -0.90625 -0.90625q-0.40625 -0.265625 -0.8125 -0.359375q-0.3125 -0.078125 -1.015625 -0.078125l-2.078125 0l0 6.046875l-1.796875 0zm1.796875 -7.59375l3.859375 0q1.234375 0 1.921875 -0.25q0.703125 -0.265625 1.0625 -0.828125q0.375 -0.5625 0.375 -1.21875q0 -0.96875 -0.703125 -1.578125q-0.703125 -0.625 -2.21875 -0.625l-4.296875 0l0 4.5zm11.676086 7.59375l0 -13.59375l9.84375 0l0 1.59375l-8.046875 0l0 4.171875l7.53125 0l0 1.59375l-7.53125 0l0 4.625l8.359375 0l0 1.609375l-10.15625 0zm11.8029175 -4.375l1.6875 -0.140625q0.125 1.015625 0.5625 1.671875q0.4375 0.65625 1.359375 1.0625q0.9375 0.40625 2.09375 0.40625q1.03125 0 1.8125 -0.3125q0.796875 -0.3125 1.1875 -0.84375q0.390625 -0.53125 0.390625 -1.15625q0 -0.640625 -0.375 -1.109375q-0.375 -0.484375 -1.234375 -0.8125q-0.546875 -0.21875 -2.421875 -0.65625q-1.875 -0.453125 -2.625 -0.859375q-0.96875 -0.515625 -1.453125 -1.265625q-0.46875 -0.75 -0.46875 -1.6875q0 -1.03125 0.578125 -1.921875q0.59375 -0.90625 1.703125 -1.359375q1.125 -0.46875 2.5 -0.46875q1.515625 0 2.671875 0.484375q1.15625 0.484375 1.765625 1.4375q0.625 0.9375 0.671875 2.140625l-1.71875 0.125q-0.140625 -1.28125 -0.953125 -1.9375q-0.796875 -0.671875 -2.359375 -0.671875q-1.625 0 -2.375 0.609375q-0.75 0.59375 -0.75 1.4375q0 0.734375 0.53125 1.203125q0.515625 0.46875 2.703125 0.96875q2.203125 0.5 3.015625 0.875q1.1875 0.546875 1.75 1.390625q0.578125 0.828125 0.578125 1.921875q0 1.09375 -0.625 2.0625q-0.625 0.953125 -1.796875 1.484375q-1.15625 0.53125 -2.609375 0.53125q-1.84375 0 -3.09375 -0.53125q-1.25 -0.546875 -1.96875 -1.625q-0.703125 -1.078125 -0.734375 -2.453125zm21.974854 -9.21875l1.796875 0l0 7.84375q0 2.0625 -0.46875 3.265625q-0.453125 1.203125 -1.671875 1.96875q-1.203125 0.75 -3.171875 0.75q-1.90625 0 -3.125 -0.65625q-1.21875 -0.65625 -1.734375 -1.90625q-0.515625 -1.25 -0.515625 -3.421875l0 -7.84375l1.796875 0l0 7.84375q0 1.765625 0.328125 2.609375q0.328125 0.84375 1.125 1.296875q0.8125 0.453125 1.96875 0.453125q1.984375 0 2.828125 -0.890625q0.84375 -0.90625 0.84375 -3.46875l0 -7.84375zm4.4729614 13.59375l0 -13.59375l1.796875 0l0 11.984375l6.703125 0l0 1.609375l-8.5 0zm13.906921 0l0 -12.0l-4.46875 0l0 -1.59375l10.765625 0l0 1.59375l-4.5 0l0 12.0l-1.796875 0zm7.333496 -4.375l1.6875 -0.140625q0.125 1.015625 0.5625 1.671875q0.4375 0.65625 1.359375 1.0625q0.9375 0.40625 2.09375 0.40625q1.03125 0 1.8125 -0.3125q0.796875 -0.3125 1.1875 -0.84375q0.390625 -0.53125 0.390625 -1.15625q0 -0.640625 -0.375 -1.109375q-0.375 -0.484375 -1.234375 -0.8125q-0.546875 -0.21875 -2.421875 -0.65625q-1.875 -0.453125 -2.625 -0.859375q-0.96875 -0.515625 -1.453125 -1.265625q-0.46875 -0.75 -0.46875 -1.6875q0 -1.03125 0.578125 -1.921875q0.59375 -0.90625 1.703125 -1.359375q1.125 -0.46875 2.5 -0.46875q1.515625 0 2.671875 0.484375q1.15625 0.484375 1.765625 1.4375q0.625 0.9375 0.671875 2.140625l-1.71875 0.125q-0.140625 -1.28125 -0.953125 -1.9375q-0.796875 -0.671875 -2.359375 -0.671875q-1.625 0 -2.375 0.609375q-0.75 0.59375 -0.75 1.4375q0 0.734375 0.53125 1.203125q0.515625 0.46875 2.703125 0.96875q2.203125 0.5 3.015625 0.875q1.1875 0.546875 1.75 1.390625q0.578125 0.828125 0.578125 1.921875q0 1.09375 -0.625 2.0625q-0.625 0.953125 -1.796875 1.484375q-1.15625 0.53125 -2.609375 0.53125q-1.84375 0 -3.09375 -0.53125q-1.25 -0.546875 -1.96875 -1.625q-0.703125 -1.078125 -0.734375 -2.453125z" fill-rule="nonzero"></path><path fill="#000000" fill-opacity="0.0" d="m182.02625 79.997375l81.03937 0l0 39.874016l-81.03937 0z" fill-rule="evenodd"></path><path fill="#000000" d="m191.57312 103.058l1.625 -0.21875q0.0625 1.546875 0.578125 2.125q0.53125 0.578125 1.4375 0.578125q0.6875 0 1.171875 -0.3125q0.5 -0.3125 0.671875 -0.84375q0.1875 -0.53125 0.1875 -1.703125l0 -9.359375l1.8125 0l0 9.265625q0 1.703125 -0.421875 2.640625q-0.40625 0.9375 -1.3125 1.4375q-0.890625 0.484375 -2.09375 0.484375q-1.796875 0 -2.75 -1.03125q-0.9375 -1.03125 -0.90625 -3.0625zm9.703125 -2.765625q0 -3.390625 1.8125 -5.296875q1.828125 -1.921875 4.703125 -1.921875q1.875 0 3.390625 0.90625q1.515625 0.890625 2.296875 2.5q0.796875 1.609375 0.796875 3.65625q0 2.0625 -0.84375 3.703125q-0.828125 1.625 -2.359375 2.46875q-1.53125 0.84375 -3.296875 0.84375q-1.921875 0 -3.4375 -0.921875q-1.5 -0.9375 -2.28125 -2.53125q-0.78125 -1.609375 -0.78125 -3.40625zm1.859375 0.03125q0 2.453125 1.3125 3.875q1.328125 1.40625 3.3125 1.40625q2.03125 0 3.34375 -1.421875q1.3125 -1.4375 1.3125 -4.0625q0 -1.65625 -0.5625 -2.890625q-0.546875 -1.234375 -1.640625 -1.921875q-1.078125 -0.6875 -2.421875 -0.6875q-1.90625 0 -3.28125 1.3125q-1.375 1.3125 -1.375 4.390625zm13.120804 6.59375l0 -13.59375l5.109375 0q1.546875 0 2.484375 0.40625q0.953125 0.40625 1.484375 1.265625q0.53125 0.859375 0.53125 1.796875q0 0.875 -0.46875 1.65625q-0.46875 0.765625 -1.4375 1.234375q1.234375 0.359375 1.890625 1.234375q0.671875 0.875 0.671875 2.0625q0 0.953125 -0.40625 1.78125q-0.390625 0.8125 -0.984375 1.265625q-0.59375 0.4375 -1.5 0.671875q-0.890625 0.21875 -2.1875 0.21875l-5.1875 0zm1.796875 -7.890625l2.9375 0q1.203125 0 1.71875 -0.15625q0.6875 -0.203125 1.03125 -0.671875q0.359375 -0.46875 0.359375 -1.1875q0 -0.671875 -0.328125 -1.1875q-0.328125 -0.515625 -0.9375 -0.703125q-0.59375 -0.203125 -2.0625 -0.203125l-2.71875 0l0 4.109375zm0 6.28125l3.390625 0q0.875 0 1.21875 -0.0625q0.625 -0.109375 1.046875 -0.359375q0.421875 -0.265625 0.6875 -0.765625q0.265625 -0.5 0.265625 -1.140625q0 -0.765625 -0.390625 -1.328125q-0.390625 -0.5625 -1.078125 -0.78125q-0.6875 -0.234375 -1.984375 -0.234375l-3.15625 0l0 4.671875zm10.115448 -2.765625l1.6875 -0.140625q0.125 1.015625 0.5625 1.671875q0.4375 0.65625 1.359375 1.0625q0.9375 0.40625 2.09375 0.40625q1.03125 0 1.8125 -0.3125q0.796875 -0.3125 1.1875 -0.84375q0.390625 -0.53125 0.390625 -1.15625q0 -0.640625 -0.375 -1.109375q-0.375 -0.484375 -1.234375 -0.8125q-0.546875 -0.21875 -2.421875 -0.65625q-1.875 -0.453125 -2.625 -0.859375q-0.96875 -0.515625 -1.453125 -1.265625q-0.46875 -0.75 -0.46875 -1.6875q0 -1.03125 0.578125 -1.921875q0.59375 -0.90625 1.703125 -1.359375q1.125 -0.46875 2.5 -0.46875q1.515625 0 2.671875 0.484375q1.15625 0.484375 1.765625 1.4375q0.625 0.9375 0.671875 2.140625l-1.71875 0.125q-0.140625 -1.28125 -0.953125 -1.9375q-0.796875 -0.671875 -2.359375 -0.671875q-1.625 0 -2.375 0.609375q-0.75 0.59375 -0.75 1.4375q0 0.734375 0.53125 1.203125q0.515625 0.46875 2.703125 0.96875q2.203125 0.5 3.015625 0.875q1.1875 0.546875 1.75 1.390625q0.578125 0.828125 0.578125 1.921875q0 1.09375 -0.625 2.0625q-0.625 0.953125 -1.796875 1.484375q-1.15625 0.53125 -2.609375 0.53125q-1.84375 0 -3.09375 -0.53125q-1.25 -0.546875 -1.96875 -1.625q-0.703125 -1.078125 -0.734375 -2.453125z" fill-rule="nonzero"></path><path fill="#000000" fill-opacity="0.0" d="m513.4278 80.1811l115.14966 0l0 39.874016l-115.14966 0z" fill-rule="evenodd"></path><path fill="#000000" d="m523.9278 107.1011l0 -13.59375l6.03125 0q1.8125 0 2.75 0.359375q0.953125 0.359375 1.515625 1.296875q0.5625 0.921875 0.5625 2.046875q0 1.453125 -0.9375 2.453125q-0.921875 0.984375 -2.890625 1.25q0.71875 0.34375 1.09375 0.671875q0.78125 0.734375 1.484375 1.8125l2.375 3.703125l-2.265625 0l-1.796875 -2.828125q-0.796875 -1.21875 -1.3125 -1.875q-0.5 -0.65625 -0.90625 -0.90625q-0.40625 -0.265625 -0.8125 -0.359375q-0.3125 -0.078125 -1.015625 -0.078125l-2.078125 0l0 6.046875l-1.796875 0zm1.796875 -7.59375l3.859375 0q1.234375 0 1.921875 -0.25q0.703125 -0.265625 1.0625 -0.828125q0.375 -0.5625 0.375 -1.21875q0 -0.96875 -0.703125 -1.578125q-0.703125 -0.625 -2.21875 -0.625l-4.296875 0l0 4.5zm11.676086 7.59375l0 -13.59375l9.84375 0l0 1.59375l-8.046875 0l0 4.171875l7.53125 0l0 1.59375l-7.53125 0l0 4.625l8.359375 0l0 1.609375l-10.15625 0zm11.8029785 -4.375l1.6875 -0.140625q0.125 1.015625 0.5625 1.671875q0.4375 0.65625 1.359375 1.0625q0.9375 0.40625 2.09375 0.40625q1.03125 0 1.8125 -0.3125q0.796875 -0.3125 1.1875 -0.84375q0.390625 -0.53125 0.390625 -1.15625q0 -0.640625 -0.375 -1.109375q-0.375 -0.484375 -1.234375 -0.8125q-0.546875 -0.21875 -2.421875 -0.65625q-1.875 -0.453125 -2.625 -0.859375q-0.96875 -0.515625 -1.453125 -1.265625q-0.46875 -0.75 -0.46875 -1.6875q0 -1.03125 0.578125 -1.921875q0.59375 -0.90625 1.703125 -1.359375q1.125 -0.46875 2.5 -0.46875q1.515625 0 2.671875 0.484375q1.15625 0.484375 1.765625 1.4375q0.625 0.9375 0.671875 2.140625l-1.71875 0.125q-0.140625 -1.28125 -0.953125 -1.9375q-0.796875 -0.671875 -2.359375 -0.671875q-1.625 0 -2.375 0.609375q-0.75 0.59375 -0.75 1.4375q0 0.734375 0.53125 1.203125q0.515625 0.46875 2.703125 0.96875q2.203125 0.5 3.015625 0.875q1.1875 0.546875 1.75 1.390625q0.578125 0.828125 0.578125 1.921875q0 1.09375 -0.625 2.0625q-0.625 0.953125 -1.796875 1.484375q-1.15625 0.53125 -2.609375 0.53125q-1.84375 0 -3.09375 -0.53125q-1.25 -0.546875 -1.96875 -1.625q-0.703125 -1.078125 -0.734375 -2.453125zm21.974792 -9.21875l1.796875 0l0 7.84375q0 2.0625 -0.46875 3.265625q-0.453125 1.203125 -1.671875 1.96875q-1.203125 0.75 -3.171875 0.75q-1.90625 0 -3.125 -0.65625q-1.21875 -0.65625 -1.734375 -1.90625q-0.515625 -1.25 -0.515625 -3.421875l0 -7.84375l1.796875 0l0 7.84375q0 1.765625 0.328125 2.609375q0.328125 0.84375 1.125 1.296875q0.8125 0.453125 1.96875 0.453125q1.984375 0 2.828125 -0.890625q0.84375 -0.90625 0.84375 -3.46875l0 -7.84375zm4.4729614 13.59375l0 -13.59375l1.796875 0l0 11.984375l6.703125 0l0 1.609375l-8.5 0zm13.906982 0l0 -12.0l-4.46875 0l0 -1.59375l10.765625 0l0 1.59375l-4.5 0l0 12.0l-1.796875 0zm7.333435 -4.375l1.6875 -0.140625q0.125 1.015625 0.5625 1.671875q0.4375 0.65625 1.359375 1.0625q0.9375 0.40625 2.09375 0.40625q1.03125 0 1.8125 -0.3125q0.796875 -0.3125 1.1875 -0.84375q0.390625 -0.53125 0.390625 -1.15625q0 -0.640625 -0.375 -1.109375q-0.375 -0.484375 -1.234375 -0.8125q-0.546875 -0.21875 -2.421875 -0.65625q-1.875 -0.453125 -2.625 -0.859375q-0.96875 -0.515625 -1.453125 -1.265625q-0.46875 -0.75 -0.46875 -1.6875q0 -1.03125 0.578125 -1.921875q0.59375 -0.90625 1.703125 -1.359375q1.125 -0.46875 2.5 -0.46875q1.515625 0 2.671875 0.484375q1.15625 0.484375 1.765625 1.4375q0.625 0.9375 0.671875 2.140625l-1.71875 0.125q-0.140625 -1.28125 -0.953125 -1.9375q-0.796875 -0.671875 -2.359375 -0.671875q-1.625 0 -2.375 0.609375q-0.75 0.59375 -0.75 1.4375q0 0.734375 0.53125 1.203125q0.515625 0.46875 2.703125 0.96875q2.203125 0.5 3.015625 0.875q1.1875 0.546875 1.75 1.390625q0.578125 0.828125 0.578125 1.921875q0 1.09375 -0.625 2.0625q-0.625 0.953125 -1.796875 1.484375q-1.15625 0.53125 -2.609375 0.53125q-1.84375 0 -3.09375 -0.53125q-1.25 -0.546875 -1.96875 -1.625q-0.703125 -1.078125 -0.734375 -2.453125z" fill-rule="nonzero"></path></g></svg>

